HIERARCHY
ROOT hip
{
	OFFSET 0.000000 0.000000 0.000000 
	CHANNELS 6 Xposition Yposition Zposition Xrotation Zrotation Yrotation
	JOINT abdomen
	{
		OFFSET 0.000000 3.402643 0.000000 
		CHANNELS 3 Xrotation Zrotation Yrotation
		JOINT chest
		{
			OFFSET 0.000000 8.438565 -0.680529 
			CHANNELS 3 Xrotation Zrotation Yrotation
			JOINT neck
			{
				OFFSET 0.000000 10.207942 -0.272212 
				CHANNELS 3 Xrotation Zrotation Yrotation
				JOINT head
				{
					OFFSET 0.000000 3.130431 0.000000 
					CHANNELS 3 Xrotation Zrotation Yrotation
					End Site
					{
						OFFSET 0.000000 3.130435 0.000000 
					}
				}
			}
			JOINT lCollar
			{
				OFFSET 3.470700 6.669187 -0.816635 
				CHANNELS 3 Yrotation Zrotation Xrotation
				JOINT lShldr
				{
					OFFSET 3.198488 0.000000 0.000000 
					CHANNELS 3 Zrotation Yrotation Xrotation
					JOINT lForeArm
					{
						OFFSET 10.139888 0.000000 0.000000 
						CHANNELS 3 Yrotation Zrotation Xrotation
						JOINT lHand
						{
							OFFSET 8.370511 0.000000 0.000000 
							CHANNELS 3 Zrotation Yrotation Xrotation
							End Site
							{
								OFFSET 4.083176 0.000000 0.000000 
							}
						}
					}
				}
			}
			JOINT rCollar
			{
				OFFSET -3.470700 6.669187 -0.816635 
				CHANNELS 3 Yrotation Zrotation Xrotation
				JOINT rShldr
				{
					OFFSET -3.198488 0.000000 0.000000 
					CHANNELS 3 Zrotation Yrotation Xrotation
					JOINT rForeArm
					{
						OFFSET -10.139888 0.000000 0.000000 
						CHANNELS 3 Yrotation Zrotation Xrotation
						JOINT rHand
						{
							OFFSET -8.370511 0.000000 0.000000 
							CHANNELS 3 Zrotation Yrotation Xrotation
							End Site
							{
								OFFSET -4.083176 0.000000 0.000000 
							}
						}
					}
				}
			}
		}
	}
	JOINT lThigh
	{
		OFFSET 5.308129 -1.633274 1.361059 
		CHANNELS 3 Xrotation Zrotation Yrotation
		JOINT lShin
		{
			OFFSET -2.041588 -20.007561 0.000000 
			CHANNELS 3 Xrotation Zrotation Yrotation
			JOINT lFoot
			{
				OFFSET 0.000000 -19.190928 -1.224953 
				CHANNELS 3 Xrotation Yrotation Zrotation
				End Site
				{
					OFFSET 0.000000 -2.449906 4.627600 
				}
			}
		}
	}
	JOINT rThigh
	{
		OFFSET -5.308129 -1.633274 1.361059 
		CHANNELS 3 Xrotation Zrotation Yrotation
		JOINT rShin
		{
			OFFSET 2.041588 -20.007561 0.000000 
			CHANNELS 3 Xrotation Zrotation Yrotation
			JOINT rFoot
			{
				OFFSET 0.000000 -19.190928 -1.224953 
				CHANNELS 3 Xrotation Yrotation Zrotation
				End Site
				{
					OFFSET 0.000000 -2.449906 4.627600 
				}
			}
		}
	}
}
MOTION
Frames: 13
Frame Time: 0.033333
-50.172577 51.271629 -39.667236 0.869141 -2.470703 -112.548828 33.746651 -24.557972 -14.701641 -18.066406 1.669922 -1.972656 51.553619 8.070152 2.616707 -75.009766 7.148437 -23.378908 2.000000 -2.000000 0.000000 -63.056641 22.353516 0.517578 -81.153473 -0.323835 -2.755134 34.183567 -1.010016 -0.267901 -2.000000 2.000000 0.000000 60.039063 -16.816406 -90.891502 74.788216 0.240048 -2.828483 31.926622 -71.552612 -68.869461 -17.118452 10.634585 -25.128233 21.335758 -5.468888 -2.561556 -1.020825 -1.513909 -10.631759 -0.023167 -14.603523 -33.831448 37.905415 4.193297 3.345730 13.208435 -24.433872 -0.705587 
-50.618984 51.706566 -40.566734 1.757813 -2.988281 -115.615746 33.318569 -25.729574 -13.039758 -17.705078 2.353516 -1.298418 51.553619 8.070152 2.616707 -75.703125 7.500000 -22.382811 2.000000 -2.000000 0.000000 -66.279297 26.455078 -3.647993 -79.061783 -0.115143 -2.698774 32.774231 -2.168726 0.115482 -2.000000 2.000000 0.000000 57.705078 -13.955079 -88.449615 75.315285 0.249232 -2.818174 32.696213 -71.208206 -70.966789 -16.725977 11.972068 -24.247190 21.326569 -5.465206 -2.560070 -0.008875 0.420184 -10.199653 2.410039 -13.024830 -34.754242 35.097080 4.085210 3.016430 10.907610 -21.114254 1.134471 
-51.043167 52.125694 -41.479836 2.812500 -3.515625 -118.858025 32.954548 -26.503246 -11.290391 -17.343750 3.037110 -0.429688 51.553619 8.070152 2.616707 -76.933594 7.822266 -20.574842 2.000000 -2.000000 0.000000 -69.121094 30.517578 -8.305585 -77.115715 -0.080238 -2.603022 32.104607 -3.606102 1.008692 -2.000000 2.000000 0.000000 55.302738 -9.648438 -84.903976 76.390076 0.094373 -2.846688 31.748400 -70.120720 -70.859070 -16.564243 13.405557 -21.094704 22.046286 -5.351307 -2.973115 2.647114 3.100538 -9.409690 5.149539 -11.303411 -35.473011 31.411079 4.476274 2.758636 8.899554 -18.286505 3.129432 
-51.357540 52.481556 -42.316898 3.681641 -4.052734 -122.275383 32.689205 -26.787920 -9.683374 -16.972656 3.720703 0.263672 51.553619 8.070152 2.616707 -78.544922 8.017768 -17.899424 2.000000 -2.000000 0.000000 -70.400391 34.609375 -11.289063 -75.348396 -0.207544 -2.605392 31.666853 -4.342388 1.606746 -2.000000 2.000000 0.000000 53.164063 -4.882813 -81.279297 78.688278 -0.045091 -2.972094 29.772146 -68.900978 -69.529823 -17.116188 14.627671 -17.789354 23.423681 -5.058545 -2.698161 4.973290 5.647840 -7.791407 7.984002 -9.792787 -35.779968 27.359035 4.525157 2.526701 7.122051 -15.610230 5.446806 
-51.505119 52.647614 -42.899109 4.746094 -4.560547 -125.908195 32.707485 -26.593021 -8.163293 -16.250000 4.736328 1.425781 51.553619 8.070152 2.616707 -80.849609 7.451171 -14.345702 2.000000 -2.000000 0.000000 -68.134766 38.408203 -11.292762 -73.751701 -0.372833 -2.419765 31.943924 -4.754114 1.962865 -2.000000 2.000000 0.000000 50.302731 1.904297 -78.330078 82.023277 0.179543 -3.135136 25.795431 -67.466995 -65.710449 -18.409851 15.513845 -15.067291 26.446939 -4.996718 -3.195666 8.570628 8.526565 -7.594164 9.771995 -8.729528 -35.475765 24.161852 4.670837 2.219330 4.840597 -12.811467 8.319707 
-51.486172 52.600174 -43.087509 5.820313 -4.736328 -129.717606 32.879860 -25.539322 -6.303736 -15.498046 5.908203 3.018584 51.553619 8.070152 2.616707 -83.730469 5.732421 -10.078123 2.000000 -2.000000 0.000000 -63.847660 41.865238 -9.179688 -72.523750 -0.690473 -2.499067 33.092140 -5.119215 2.276031 -2.000000 2.000000 0.000000 46.533203 9.882813 -75.603798 86.424561 -0.109388 -3.044260 21.707386 -65.383766 -61.784527 -18.694258 15.201740 -12.940260 31.553719 -4.659715 -3.430274 8.496196 11.459877 -7.096931 10.772172 -8.162034 -34.594467 22.418613 4.671820 2.057756 1.834439 -10.744359 11.539874 
-50.767544 52.299664 -42.421730 7.041016 -4.912109 -134.590683 33.169338 -24.080271 -4.459997 -14.550782 7.402344 4.736328 51.553619 8.070152 2.616707 -86.660156 3.388671 -5.282626 2.000000 -2.000000 0.000000 -58.818359 44.667969 -4.700167 -71.119774 -0.490270 -2.588942 34.309639 -5.480944 2.868805 -2.000000 2.000000 0.000000 42.177738 17.500000 -72.721672 91.199524 -0.558420 -3.060455 16.612083 -63.056381 -56.276707 -19.115208 14.577230 -11.297531 38.400455 -4.127028 -3.985548 10.024674 16.368418 -6.268525 9.172315 -8.679041 -31.868324 23.810200 4.690581 2.184700 -1.064021 -8.644773 12.014050 
-50.249954 51.951721 -41.140575 8.642578 -4.873047 -141.221542 33.506912 -22.257214 -2.915689 -13.593750 8.886719 6.349164 51.553619 8.070152 2.616707 -89.316406 0.781250 0.420055 2.000000 -2.000000 0.000000 -56.152340 47.646488 -0.168564 -69.707748 -0.625496 -2.727855 34.901974 -5.012109 3.319356 -2.000000 2.000000 0.000000 37.324223 22.753904 -69.556778 95.421280 -0.854694 -2.842915 12.208428 -61.327366 -50.474709 -19.303951 14.109979 -9.640254 44.906040 -3.635483 -4.480754 13.524805 22.024998 -6.692981 5.749547 -10.154206 -27.840216 27.524759 4.535657 2.571697 -1.209677 -5.746190 13.155068 
-50.207687 51.580044 -40.037853 10.214844 -4.511719 -148.682419 34.082561 -20.333874 -1.562102 -12.626953 10.195313 7.950948 51.553619 8.070152 2.616707 -91.513672 -1.455078 6.464845 2.000000 -2.000000 0.000000 -58.417965 52.031250 4.197153 -67.586166 -0.962194 -2.629933 34.817318 -3.344066 4.369380 -2.000000 2.000000 0.000000 33.613285 26.855469 -63.403793 99.485420 -1.123720 -2.926922 6.483194 -59.833637 -42.800259 -19.186998 13.250734 -7.759331 51.395351 -3.187315 -4.933697 17.379471 26.821693 -8.071651 3.434647 -11.167746 -23.494144 29.482037 4.847714 2.690574 -1.843991 -1.977082 13.222825 
-50.659069 51.350708 -39.503738 11.259765 -3.984375 -155.683594 34.440701 -18.363035 -0.706253 -12.011720 11.328126 9.111328 51.553619 8.070152 2.616707 -93.134766 -2.832031 12.636719 2.000000 -2.000000 0.000000 -61.406250 56.875004 10.857788 -65.110207 -1.087923 -2.436830 34.025562 -0.956510 5.384378 -2.000000 2.000000 0.000000 33.027344 30.410156 -53.798828 103.377182 -1.249494 -3.119981 0.692844 -58.680492 -34.326210 -18.829185 12.593140 -6.035632 56.643810 -2.738923 -5.090575 19.928144 31.467743 -9.846767 1.806402 -11.503504 -19.471684 29.984852 4.468201 2.804853 -2.073505 1.230590 12.606461 
-51.299225 51.271629 -39.154270 11.611328 -2.939453 -161.299332 34.666527 -16.615993 -0.606885 -11.796875 11.816406 9.494186 51.553619 8.070152 2.616707 -93.525391 -3.037109 18.515629 2.000000 -2.000000 0.000000 -55.546875 60.273434 20.371094 -63.880554 -1.079874 -2.466633 33.686836 0.468874 6.082882 -2.000000 2.000000 0.000000 36.015625 33.066406 -41.273964 107.071938 -1.534882 -2.921365 -4.665165 -56.987675 -26.155067 -18.132900 12.430439 -3.845269 59.298035 -2.662554 -5.152532 20.386286 34.118645 -10.851541 0.292249 -11.991734 -15.264600 29.291822 4.859274 2.687325 -1.392002 3.696096 12.577412 
-52.055382 51.311165 -38.880108 10.898438 -1.738281 -165.947556 34.677139 -15.006368 -0.984732 -11.767578 12.158203 9.433594 51.553619 8.070152 2.616707 -93.095703 -2.568359 24.365232 2.000000 -2.000000 0.000000 -46.894531 62.246098 33.398438 -64.219711 -1.260006 -2.368149 34.146099 0.444613 6.323783 -2.000000 2.000000 0.000000 40.839848 34.375000 -27.846050 110.803299 -1.814789 -2.986440 -9.975857 -55.385250 -18.169115 -16.853210 12.879201 -1.348599 58.976292 -3.041942 -5.013152 17.554667 34.697609 -9.789337 -1.826234 -11.955530 -11.032540 28.231752 4.743257 2.511949 -0.166439 5.828075 13.758666 
-52.857582 51.445610 -38.607162 9.140625 0.000000 -170.175781 34.743568 -13.242592 -1.665601 -12.099608 12.519532 9.113444 51.553619 8.070152 2.616707 -92.324219 -2.148437 29.658201 2.000000 -2.000000 0.000000 -37.177734 62.343754 48.084827 -65.468918 -0.966154 -2.698316 34.932644 -0.623931 6.550222 -2.000000 2.000000 0.000000 44.736324 33.984375 -15.957029 113.794052 -2.112514 -2.407895 -14.131094 -53.268436 -11.961213 -14.954211 13.616681 2.032259 55.152485 -3.734591 -4.580947 12.788011 32.575798 -7.184267 -4.168347 -11.408999 -7.281251 26.435373 4.843479 2.519900 2.291188 7.592962 14.218223 
